<?xml version="1.0" encoding="utf-8"?>
<svg version="1.1" xmlns="http://www.w3.org/2000/svg" xmlns:xlink="http://www.w3.org/1999/xlink" x="0px" y="0px" viewBox="0 0 1000 1000" enable-background="new 0 0 1000 1000" xml:space="preserve">
<g><path fill="#DAA520" d="M846.8,845.6C758.3,935.3,636.2,990,500,990c-134.8,0-256.9-54.7-346.8-144.4C64.7,757.3,10,635.3,10,500.7c0-136,54.7-258,143.2-346.3C243.1,64.7,365.2,10,500,10c136.2,0,258.3,54.7,346.8,144.4C935.3,242.7,990,364.7,990,500.7C990,635.3,935.3,757.3,846.8,845.6z M807.5,193.7C728.9,115.1,620.7,67.5,500,67.5c-119.3,0-227.5,47.7-306.1,126.2c-78.6,78.5-127.8,186.5-127.8,307c0,119.2,49.1,227.1,127.8,305.6c78.6,78.5,186.8,126.2,306.1,126.2c120.7,0,228.9-47.7,307.5-126.2c77.2-78.5,126.4-186.5,126.4-305.6C933.8,380.1,884.7,272.1,807.5,193.7z M696.6,776.9l-46.3,22.4l-75.8-159.8l-2.8-5.6c0,0,35.1-15.4,53.3-19.6c16.8-5.6,21.1,8.4,21.1,8.4s46.3,96.7,57.6,120.5C714.8,767,696.6,776.9,696.6,776.9z M362.4,593.2c-145.6-279.5-15-369.5-15.5-374.2c1.2,3.3,12.9,29.7,75.9,162.5c-16.9,0-16.9,14-7,56.1c8.4,43.5,67.4,155.6,94.1,190.7c25.3,33.6,44.9,18.2,44.9,18.2l71.6,161.2C626.4,807.7,507,872.2,362.4,593.2z M347,218.9L347,218.9C346.7,218.4,346.7,218.4,347,218.9z M491.6,349.3l-46.3,22.4l-75.9-159.8l-2.8-4.2c0,0,35.1-15.4,53.3-21c16.9-4.2,21.1,8.4,21.1,8.4s46.3,98.1,57.6,122C509.8,340.8,491.6,349.3,491.6,349.3z"/></g>
</svg>